<svg id="ic_nalog" xmlns="http://www.w3.org/2000/svg" width="44" height="44"><path id="Rectangle_33" data-name="Rectangle 33" fill="none" d="M0 0h44v44H0z"/><path id="Path_33" data-name="Path 33" d="M579.006 301.029l-1.086-.515a14.914 14.914 0 00-14.057-19.542 14.926 14.926 0 00-14.857 14.857 14.453 14.453 0 003.771 9.942 14.3 14.3 0 009.372 4.858v1.142a15.949 15.949 0 1117.714-15.942 15.986 15.986 0 01-.857 5.2zm-24.857-14.858a13.159 13.159 0 00-4 9.658 13.374 13.374 0 003.429 9.143 13.2 13.2 0 008.571 4.514v-7.029h-2.114c-.267 0-.4-.151-.4-.457v-.8a.411.411 0 01.228-.4q.515-.171 1.029-.4a4.349 4.349 0 01.743-.172v-9.142h-.057q-.63.057-1.258.057h-.571a.366.366 0 01-.4-.343l-.114-.743a.449.449 0 01.343-.457 17.107 17.107 0 002.171-.686 11.521 11.521 0 002.171-1.085.508.508 0 01.229-.058h1.257a.354.354 0 01.4.4v6.458L576.892 300a12.771 12.771 0 00.686-4.171 13.068 13.068 0 00-4.058-9.658c-2.666-2.7-4.814-4.057-9.657-4.057s-7.422 1.948-9.714 4.057zm10.8 29.429v-18.286l16.343 7.943a.462.462 0 00.743-.228.521.521 0 00-.229-.8l-17.2-8.285a.428.428 0 00-.514 0 .516.516 0 00-.286.457v19.2a.571.571 0 001.143 0zm1.143-2.743a14.525 14.525 0 007.486-2.285 14.321 14.321 0 004.971-5.372l-1.029-.514a12.447 12.447 0 01-11.428 7.028z" transform="translate(-542.863 -275.829)" fill="#004685"/></svg>