<svg xmlns="http://www.w3.org/2000/svg" width="294.814" height="44"><defs><clipPath id="clip-path"><path id="Rectangle_3" data-name="Rectangle 3" fill="#fff" stroke="#707070" stroke-width="1" d="M475 11h44v44h-44z"/></clipPath></defs><g id="logo_site-logo" transform="translate(-475 -11)"><g id="logo_site-logo_znak" transform="translate(475 11)"><g id="logo_site-logo_znak-2" data-name="logo_site-logo_znak" transform="translate(-475 -11)" clip-path="url(#clip-path)"><g id="Group_1" data-name="Group 1" transform="rotate(-45 477.554 -29.209)"><path id="Rectangle_2" data-name="Rectangle 2" transform="rotate(-20 265.739 -1217.721)" fill="#569ddc" d="M0 0h27.139v27.139H0z"/><path id="Rectangle_1" data-name="Rectangle 1" transform="translate(432.612 17.344)" fill="#004685" d="M0 0h27.139v27.139H0z"/><circle id="Ellipse_1" data-name="Ellipse 1" cx="2.326" cy="2.326" r="2.326" transform="translate(451.492 28.979)" fill="#fff"/></g></g></g><path id="Path_81" data-name="Path 81" d="M12.547 34H6.375V16.2H.8v-5.044h17.309V16.2h-5.562zm30.966 0h-6.2v-9.312h-7.175V34h-6.2V11.156h6.2v8.469h7.172v-8.469h6.2zm7.5 0V11.156h6.2V34zm28.638-6.937a6.739 6.739 0 01-1.078 3.773 7.06 7.06 0 01-3.112 2.564 11.526 11.526 0 01-4.766.914 19.28 19.28 0 01-3.828-.32 14.212 14.212 0 01-3.219-1.117v-5.5a18.381 18.381 0 003.672 1.414 13.682 13.682 0 003.5.508 3.4 3.4 0 002.016-.477 1.465 1.465 0 00.641-1.227 1.35 1.35 0 00-.258-.82 3 3 0 00-.828-.711q-.57-.359-3.039-1.469A14.58 14.58 0 0166 22.625a6.044 6.044 0 01-1.656-2.187 7.261 7.261 0 01-.539-2.922 5.856 5.856 0 012.3-4.922 10.125 10.125 0 016.313-1.766 17.714 17.714 0 017.234 1.641l-1.891 4.766a13.7 13.7 0 00-5.531-1.469 2.882 2.882 0 00-1.75.422 1.276 1.276 0 00-.547 1.047 1.512 1.512 0 00.7 1.2 26.507 26.507 0 003.767 1.94 10.437 10.437 0 014.1 2.852 6.193 6.193 0 011.149 3.836zm19.81.734a5.749 5.749 0 01-2.2 4.781 9.588 9.588 0 01-6.078 1.734 14.5 14.5 0 01-6.344-1.2v-3.534a17.242 17.242 0 003.32 1.156 14.078 14.078 0 003.273.422 5.207 5.207 0 003.273-.844 2.751 2.751 0 001.055-2.266 2.839 2.839 0 00-.969-2.172 14.584 14.584 0 00-4-2.109 10.582 10.582 0 01-4.406-2.891 6.116 6.116 0 01-1.285-3.905 5.471 5.471 0 012.031-4.5 8.426 8.426 0 015.453-1.641 16.022 16.022 0 016.531 1.438l-1.187 3.047a14.269 14.269 0 00-5.437-1.281 4.173 4.173 0 00-2.75.789 2.592 2.592 0 00-.937 2.086 2.937 2.937 0 00.375 1.523 3.83 3.83 0 001.234 1.2 20.879 20.879 0 003.094 1.484 16.928 16.928 0 013.688 1.953 5.745 5.745 0 011.719 2.047 6.157 6.157 0 01.545 2.686zm6.982 6.2V11.156h3.734V34zm20.216 0h-3.734V14.359H116.2v-3.2h17.172v3.2h-6.719zm25.7 0h-12.923V11.156h12.922v3.156h-9.188v6.219h8.609v3.125h-8.609v7.172h9.188zm13.669 0h-1.609V12.656H157v-1.5h16.453v1.5h-7.422zM179.4 34V11.156h1.594V34zm16.576 0h-1.609V12.656h-7.422v-1.5H203.4v1.5h-7.422zm13.372 0V11.156h1.594V32.5h10.891V34zm31.466 0h-12.485V11.156h12.484v1.469h-10.89v8.641H240.2v1.469h-10.277v9.8h10.891z" transform="translate(529 12)" fill="#004685"/></g></svg>