<svg id="logo_partner4" xmlns="http://www.w3.org/2000/svg" width="148" height="100"><g id="Group_39" data-name="Group 39" transform="translate(.866 20)" opacity=".35"><g id="Group_17" data-name="Group 17"><path id="Path_51" data-name="Path 51" d="M93.31 70.177l67.855-28.146 67.855 28.146-67.856 28.145z" transform="translate(-88.495 -40.035)"/><path id="Path_52" data-name="Path 52" d="M158.149 42.778l63.04 26.148-63.04 26.148-63.041-26.148 63.04-26.148m0-3.994l-1.414.586-63.039 26.148-8.216 3.408 8.216 3.408 63.04 26.148 1.414.586 1.413-.586L222.6 72.334l8.216-3.408-8.216-3.408-63.038-26.148-1.413-.586z" transform="translate(-85.479 -38.784)"/></g><g id="Group_18" data-name="Group 18" transform="translate(3.21 1.331)"><path id="Path_53" data-name="Path 53" d="M95.919 70.594l66.25-27.48 66.25 27.48-66.25 27.48z" transform="translate(-92.71 -41.783)"/><path id="Path_54" data-name="Path 54" d="M160.16 43.612L223.2 69.76l-63.04 26.148L97.119 69.76l63.04-26.148m0-2.663l-.943.391-63.039 26.148L90.7 69.76l5.477 2.272 63.04 26.148.943.391.942-.391 63.04-26.148 5.477-2.272-5.477-2.271L161.1 41.34l-.942-.391z" transform="translate(-90.7 -40.949)" fill="#fff"/></g><path id="Path_55" data-name="Path 55" d="M154.194 57.9v27.059l30.419 12.618 30.419-12.618V57.9l-30.419-12.621z" transform="translate(-111.943 -41.286)" fill="#fff"/><path id="Path_56" data-name="Path 56" d="M164.18 47.276l58.225 24.151-58.225 24.152-58.226-24.151 58.226-24.152m0-2l-63.04 26.152 63.04 26.148 63.04-26.148-63.04-26.148z" transform="translate(-91.511 -41.286)"/></g><path id="Rectangle_40" data-name="Rectangle 40" fill="none" d="M0 0h148v100H0z"/></svg>