<svg id="logo_partner2" xmlns="http://www.w3.org/2000/svg" width="90" height="100"><defs><clipPath id="clip-path"><path id="Rectangle_37" data-name="Rectangle 37" transform="translate(35)" fill="none" d="M0 0h90v100H0z"/></clipPath></defs><g id="Mask_Group_2" data-name="Mask Group 2" transform="translate(-35)" clip-path="url(#clip-path)"><g id="Group_11" data-name="Group 11" transform="translate(-264.707 -229.319)" opacity=".35"><g id="Group_11-2" data-name="Group 11" transform="translate(306.857 234.333)"><path id="Path_40" data-name="Path 40" d="M345.257 320.405a40.923 40.923 0 01-34.1-18.377l-.687-1.033.687-1.033a38.2 38.2 0 000-42.185l-.687-1.033.687-1.033a40.819 40.819 0 0168.194 0l.687 1.033-.687 1.033a38.208 38.208 0 000 42.185l.687 1.033-.687 1.033a40.921 40.921 0 01-34.094 18.377z" transform="translate(-306.857 -234.333)"/><path id="Path_41" data-name="Path 41" d="M345.257 238.132a40.7 40.7 0 0133.821 18.025 40.75 40.75 0 000 45.424 40.743 40.743 0 01-67.642 0 40.751 40.751 0 000-45.424 40.7 40.7 0 0133.821-18.025m0-3.8a44.507 44.507 0 00-36.973 19.7l-1.427 2.121 1.427 2.121a36.951 36.951 0 010 41.182l-1.427 2.121 1.427 2.121a44.542 44.542 0 0073.947 0l1.427-2.121-1.427-2.121a36.951 36.951 0 010-41.182l1.427-2.121-1.427-2.121a44.507 44.507 0 00-36.973-19.7z" transform="translate(-306.857 -234.333)"/></g><g id="Group_12" data-name="Group 12" transform="translate(309.267 236.333)"><path id="Path_42" data-name="Path 42" d="M345.257 319.405a39.712 39.712 0 01-33.127-17.935l-.452-.682.452-.682a38.61 38.61 0 000-42.472l-.452-.683.452-.682a39.561 39.561 0 0166.254 0l.452.682-.452.683a38.61 38.61 0 000 42.472l.452.682-.452.682a39.712 39.712 0 01-33.127 17.935z" transform="translate(-309.267 -236.333)"/><path id="Path_43" data-name="Path 43" d="M345.257 238.823a39.646 39.646 0 0133.01 17.72 40.3 40.3 0 000 44.654 39.608 39.608 0 01-66.021 0 40.3 40.3 0 000-44.654 39.646 39.646 0 0133.01-17.72m0-2.49a42.123 42.123 0 00-35.056 18.819l-.929 1.39.929 1.39a37.8 37.8 0 010 41.874l-.929 1.39.929 1.39a42.07 42.07 0 0070.122 0l.929-1.39-.929-1.39a37.8 37.8 0 010-41.874l.929-1.39-.929-1.39a42.123 42.123 0 00-35.061-18.819z" transform="translate(-309.267 -236.333)" fill="#fff"/></g></g></g></svg>