<svg xmlns="http://www.w3.org/2000/svg" width="24" height="24"><g id="ic_search" transform="translate(-6 -6)"><path id="Rectangle_31" data-name="Rectangle 31" transform="translate(6 6)" fill="none" d="M0 0h24v24H0z"/><path id="Union_2" data-name="Union 2" d="M-1610.292 30.085l-3.564-3.565q-.054-.054-.1-.111a9.176 9.176 0 01-5.245 1.629 9.18 9.18 0 01-6.534-2.706 9.18 9.18 0 01-2.707-6.535 9.177 9.177 0 012.707-6.534 9.177 9.177 0 016.534-2.707 9.183 9.183 0 016.535 2.706 9.183 9.183 0 012.706 6.535 9.176 9.176 0 01-1.63 5.245q.057.048.111.1l3.564 3.565a1.68 1.68 0 010 2.376 1.675 1.675 0 01-1.188.492 1.675 1.675 0 01-1.189-.49zm-13.663-16.04a6.728 6.728 0 000 9.5 6.728 6.728 0 009.5 0 6.728 6.728 0 000-9.5 6.7 6.7 0 00-4.753-1.966 6.7 6.7 0 00-4.747 1.966z" transform="translate(1636.444 -1.556)" fill="#004685"/></g></svg>